<?xml version="1.0" encoding="UTF-8"?>
<!DOCTYPE svg PUBLIC "-//W3C//DTD SVG 1.1//EN" "http://www.w3.org/Graphics/SVG/1.1/DTD/svg11.dtd">
<svg xmlns="http://www.w3.org/2000/svg" version="1.1" width="841px" height="624px" style="shape-rendering:geometricPrecision; text-rendering:geometricPrecision; image-rendering:optimizeQuality; fill-rule:evenodd; clip-rule:evenodd" xmlns:xlink="http://www.w3.org/1999/xlink">
<g><path style="opacity:1" fill="none" d="M -0.5,-0.5 C 279.833,-0.5 560.167,-0.5 840.5,-0.5C 840.5,207.5 840.5,415.5 840.5,623.5C 560.167,623.5 279.833,623.5 -0.5,623.5C -0.5,415.5 -0.5,207.5 -0.5,-0.5 Z"/></g>
<g><path style="opacity:1" fill="#c87675" d="M 258.5,256.5 C 250.112,256.227 241.779,256.56 233.5,257.5C 233.611,256.883 233.944,256.383 234.5,256C 242.677,255.177 250.677,255.344 258.5,256.5 Z"/></g>
<g><path style="opacity:1" fill="#b54949" d="M 258.5,256.5 C 258.833,256.5 259.167,256.5 259.5,256.5C 261.515,257.924 263.848,258.59 266.5,258.5C 281.186,264.519 291.519,274.853 297.5,289.5C 297.259,291.898 297.926,293.898 299.5,295.5C 305.358,322.401 296.358,342.901 272.5,357C 243.979,369.163 220.479,362.997 202,338.5C 186.475,307.1 192.975,281.267 221.5,261C 222.448,260.517 223.448,260.351 224.5,260.5C 226.153,260.34 227.486,259.674 228.5,258.5C 229.919,257.549 231.585,257.216 233.5,257.5C 241.779,256.56 250.112,256.227 258.5,256.5 Z"/></g>
<g><path style="opacity:1" fill="#e0b2b2" d="M 259.5,256.5 C 262.152,256.41 264.485,257.076 266.5,258.5C 263.848,258.59 261.515,257.924 259.5,256.5 Z"/></g>
<g><path style="opacity:1" fill="#d69a99" d="M 228.5,258.5 C 227.486,259.674 226.153,260.34 224.5,260.5C 225.287,258.896 226.62,258.229 228.5,258.5 Z"/></g>
<g><path style="opacity:1" fill="#e2b9b9" d="M 256.5,263.5 C 253.941,263.198 251.607,263.532 249.5,264.5C 248.957,264.44 248.624,264.107 248.5,263.5C 251.309,262.2 253.976,262.2 256.5,263.5 Z"/></g>
<g><path style="opacity:1" fill="#fdfbfb" d="M 256.5,263.5 C 270.564,266.581 281.23,274.247 288.5,286.5C 289.776,291.331 291.443,295.998 293.5,300.5C 293.5,303.167 293.5,305.833 293.5,308.5C 290.833,308.167 288.167,307.833 285.5,307.5C 269.343,302.179 258.177,291.513 252,275.5C 250.56,271.959 249.726,268.292 249.5,264.5C 251.607,263.532 253.941,263.198 256.5,263.5 Z"/></g>
<g><path style="opacity:1" fill="#d39393" d="M 381.5,277.5 C 369.117,277.206 356.783,277.54 344.5,278.5C 344.611,277.883 344.944,277.383 345.5,277C 357.674,276.174 369.674,276.34 381.5,277.5 Z"/></g>
<g><path style="opacity:1" fill="#b54a49" d="M 381.5,277.5 C 383.214,278.738 385.214,279.405 387.5,279.5C 396.646,283.49 401.813,290.49 403,300.5C 403.667,313.5 403.667,326.5 403,339.5C 399.333,343.5 395.667,343.5 392,339.5C 391.816,325.759 391.316,312.092 390.5,298.5C 390.573,296.973 389.906,295.973 388.5,295.5C 385.898,291.518 382.231,289.185 377.5,288.5C 374.024,287.357 370.358,287.19 366.5,288C 364.68,288.2 363.347,289.034 362.5,290.5C 359.614,291.596 357.614,293.596 356.5,296.5C 355.778,296.918 355.278,297.584 355,298.5C 354.5,311.829 354.333,325.163 354.5,338.5C 352.608,342.168 349.608,343.335 345.5,342C 344.695,340.887 344.028,339.721 343.5,338.5C 343.19,318.454 343.524,298.454 344.5,278.5C 356.783,277.54 369.117,277.206 381.5,277.5 Z"/></g>
<g><path style="opacity:1" fill="#e2b5b5" d="M 381.5,277.5 C 384.01,277.054 386.01,277.72 387.5,279.5C 385.214,279.405 383.214,278.738 381.5,277.5 Z"/></g>
<g><path style="opacity:1" fill="#b64c4b" d="M 459.5,277.5 C 474.14,280.641 482.973,289.641 486,304.5C 486.667,316.167 486.667,327.833 486,339.5C 485.167,340.333 484.333,341.167 483.5,342C 470.167,342.667 456.833,342.667 443.5,342C 430.939,337.441 423.439,328.608 421,315.5C 418.888,299.724 424.721,288.057 438.5,280.5C 445.263,278.018 452.263,277.018 459.5,277.5 Z"/></g>
<g><path style="opacity:1" fill="#b64c4c" d="M 586.5,277.5 C 591.844,277.334 597.177,277.501 602.5,278C 606.961,280.064 611.294,282.398 615.5,285C 618.848,287.501 621.182,290.668 622.5,294.5C 622.415,297.649 623.415,300.316 625.5,302.5C 626.66,314.326 626.826,326.326 626,338.5C 625.535,339.931 624.701,341.097 623.5,342C 610.5,342.667 597.5,342.667 584.5,342C 574.245,339.086 567.079,332.586 563,322.5C 557.946,306.45 561.78,292.95 574.5,282C 576.407,280.878 578.407,280.045 580.5,279.5C 582.898,279.741 584.898,279.074 586.5,277.5 Z"/></g>
<g><path style="opacity:1" fill="#b64c4c" d="M 494.5,277.5 C 497.652,276.959 500.152,277.959 502,280.5C 509.016,295.198 516.016,309.864 523,324.5C 529.655,309.854 536.322,295.187 543,280.5C 547.611,276.187 551.444,276.854 554.5,282.5C 545.586,302.162 536.253,321.662 526.5,341C 523.331,341.978 520.497,341.478 518,339.5C 509.349,321.531 500.683,303.531 492,285.5C 491.388,282.389 492.221,279.723 494.5,277.5 Z"/></g>
<g><path style="opacity:1" fill="#cd8383" d="M 586.5,277.5 C 584.898,279.074 582.898,279.741 580.5,279.5C 582.102,277.926 584.102,277.259 586.5,277.5 Z"/></g>
<g><path style="opacity:1" fill="#b74e4d" d="M 648.5,277.5 C 651.482,277.104 654.149,277.771 656.5,279.5C 657.666,299.492 657.833,319.492 657,339.5C 652.752,343.842 649.085,343.508 646,338.5C 645.333,319.167 645.333,299.833 646,280.5C 647.045,279.627 647.878,278.627 648.5,277.5 Z"/></g>
<g><path style="opacity:1" fill="#d79d9d" d="M 459.5,277.5 C 452.263,277.018 445.263,278.018 438.5,280.5C 440.385,278.689 442.719,277.522 445.5,277C 450.352,276.185 455.019,276.352 459.5,277.5 Z"/></g>
<g><path style="opacity:1" fill="#d29292" d="M 344.5,278.5 C 343.524,298.454 343.19,318.454 343.5,338.5C 342.338,319.004 342.171,299.338 343,279.5C 343.383,278.944 343.883,278.611 344.5,278.5 Z"/></g>
<g><path style="opacity:1" fill="#dfb1b0" d="M 459.5,288.5 C 454.77,288.283 450.103,288.617 445.5,289.5C 445.611,288.883 445.944,288.383 446.5,288C 451.02,287.186 455.354,287.353 459.5,288.5 Z"/></g>
<g><path style="opacity:1" fill="#fdfcfc" d="M 459.5,288.5 C 459.833,288.5 460.167,288.5 460.5,288.5C 460.973,289.906 461.973,290.573 463.5,290.5C 472.511,296.332 476.011,304.665 474,315.5C 469.272,329.118 459.772,334.285 445.5,331C 431.934,322.503 428.767,311.003 436,296.5C 438.501,293.152 441.668,290.818 445.5,289.5C 450.103,288.617 454.77,288.283 459.5,288.5 Z"/></g>
<g><path style="opacity:1" fill="#fdfafa" d="M 584.5,330.5 C 583.415,328.413 581.749,327.08 579.5,326.5C 578.167,325.167 576.833,323.833 575.5,322.5C 573.121,317.095 572.121,311.428 572.5,305.5C 577.303,289.394 587.637,284.227 603.5,290C 613.221,296.287 616.721,305.121 614,316.5C 608.312,329.469 598.478,334.136 584.5,330.5 Z"/></g>
<g><path style="opacity:1" fill="#e7c1c1" d="M 288.5,286.5 C 291.324,290.63 292.991,295.297 293.5,300.5C 291.443,295.998 289.776,291.331 288.5,286.5 Z"/></g>
<g><path style="opacity:1" fill="#dfafaf" d="M 377.5,288.5 C 372.341,288.182 367.341,288.848 362.5,290.5C 363.347,289.034 364.68,288.2 366.5,288C 370.358,287.19 374.024,287.357 377.5,288.5 Z"/></g>
<g><path style="opacity:1" fill="#daa1a1" d="M 460.5,288.5 C 462.027,288.427 463.027,289.094 463.5,290.5C 461.973,290.573 460.973,289.906 460.5,288.5 Z"/></g>
<g><path style="opacity:1" fill="#cd8382" d="M 297.5,289.5 C 299.074,291.102 299.741,293.102 299.5,295.5C 297.926,293.898 297.259,291.898 297.5,289.5 Z"/></g>
<g><path style="opacity:1" fill="#dca8a7" d="M 388.5,295.5 C 389.906,295.973 390.573,296.973 390.5,298.5C 389.094,298.027 388.427,297.027 388.5,295.5 Z"/></g>
<g><path style="opacity:1" fill="#cd8280" d="M 622.5,294.5 C 624.585,296.684 625.585,299.351 625.5,302.5C 623.415,300.316 622.415,297.649 622.5,294.5 Z"/></g>
<g><path style="opacity:1" fill="#daa4a4" d="M 356.5,296.5 C 355.903,310.648 355.236,324.648 354.5,338.5C 354.333,325.163 354.5,311.829 355,298.5C 355.278,297.584 355.778,296.918 356.5,296.5 Z"/></g>
<g><path style="opacity:1" fill="#fbf5f5" d="M 242.5,337.5 C 240.735,338.461 238.735,338.795 236.5,338.5C 235.642,335.95 234.642,333.45 233.5,331C 229.459,330.173 225.459,330.34 221.5,331.5C 220.212,333.739 219.212,336.072 218.5,338.5C 216.265,338.795 214.265,338.461 212.5,337.5C 216.229,327.817 220.062,318.151 224,308.5C 226.333,305.833 228.667,305.833 231,308.5C 234.938,318.151 238.771,327.817 242.5,337.5 Z"/></g>
<g><path style="opacity:1" fill="#fcf8f8" d="M 246.5,306.5 C 248.5,306.5 250.5,306.5 252.5,306.5C 252.5,317.167 252.5,327.833 252.5,338.5C 250.5,338.5 248.5,338.5 246.5,338.5C 246.5,327.833 246.5,317.167 246.5,306.5 Z"/></g>
<g><path style="opacity:1" fill="#d69a99" d="M 293.5,300.5 C 294.477,303.287 294.81,306.287 294.5,309.5C 291.123,309.932 288.123,309.265 285.5,307.5C 288.167,307.833 290.833,308.167 293.5,308.5C 293.5,305.833 293.5,303.167 293.5,300.5 Z"/></g>
<g><path style="opacity:1" fill="#c77575" d="M 572.5,305.5 C 572.121,311.428 573.121,317.095 575.5,322.5C 573.689,320.615 572.522,318.281 572,315.5C 571.192,311.973 571.359,308.64 572.5,305.5 Z"/></g>
<g><path style="opacity:1" fill="#bc5a59" d="M 226.5,315.5 C 227.586,315.62 228.253,316.287 228.5,317.5C 229.467,319.762 230.134,322.095 230.5,324.5C 228.5,324.5 226.5,324.5 224.5,324.5C 225.461,321.574 226.127,318.574 226.5,315.5 Z"/></g>
<g><path style="opacity:1" fill="#e5bcbb" d="M 579.5,326.5 C 581.749,327.08 583.415,328.413 584.5,330.5C 582.251,329.92 580.585,328.587 579.5,326.5 Z"/></g>
<g><path style="opacity:1" fill="#d29292" d="M 212.5,337.5 C 214.265,338.461 216.265,338.795 218.5,338.5C 216.307,339.797 213.973,339.797 211.5,338.5C 211.624,337.893 211.957,337.56 212.5,337.5 Z"/></g>
<g><path style="opacity:1" fill="#d29392" d="M 242.5,337.5 C 243.043,337.56 243.376,337.893 243.5,338.5C 241.027,339.797 238.693,339.797 236.5,338.5C 238.735,338.795 240.735,338.461 242.5,337.5 Z"/></g>
</svg>
